<?xml version="1.0" encoding="UTF-8" standalone="no"?>
<!-- Created with Inkscape (http://www.inkscape.org/) -->

<svg
   width="210mm"
   height="297mm"
   viewBox="0 0 210 297"
   version="1.1"
   id="svg6180"
   inkscape:version="1.2.1 (9c6d41e, 2022-07-14)"
   sodipodi:docname="dibujo.svg"
   xmlns:inkscape="http://www.inkscape.org/namespaces/inkscape"
   xmlns:sodipodi="http://sodipodi.sourceforge.net/DTD/sodipodi-0.dtd"
   xmlns="http://www.w3.org/2000/svg"
   xmlns:svg="http://www.w3.org/2000/svg">
  <sodipodi:namedview
     id="namedview6182"
     pagecolor="#ffffff"
     bordercolor="#666666"
     borderopacity="1.0"
     inkscape:showpageshadow="2"
     inkscape:pageopacity="0.0"
     inkscape:pagecheckerboard="0"
     inkscape:deskcolor="#d1d1d1"
     inkscape:document-units="mm"
     showgrid="false"
     inkscape:zoom="1.1893044"
     inkscape:cx="319.09409"
     inkscape:cy="416.63009"
     inkscape:window-width="1862"
     inkscape:window-height="1016"
     inkscape:window-x="0"
     inkscape:window-y="0"
     inkscape:window-maximized="1"
     inkscape:current-layer="layer1"
     showguides="true" />
  <defs
     id="defs6177" />
  <path
     id="rect7076"
     style="opacity:0.96;fill:#e66100;stroke:#000000;stroke-width:0.264583"
     d="m 63.00804,83.071415 a 6.9964757,7.070776 45 0 0 -4.984192,2.086695 6.9964757,7.070776 45 0 0 -0.05271,9.946679 6.9964757,7.070776 45 0 0 3.604947,1.906861 l 30.83171,30.83171 1.994194,-1.99419 1.994193,1.99419 30.831707,-30.83171 a 7.070776,6.9964757 45 0 0 3.60495,-1.906861 7.070776,6.9964757 45 0 0 -0.0527,-9.946679 7.070776,6.9964757 45 0 0 -9.9472,-0.05271 7.070776,6.9964757 45 0 0 -1.90634,3.604947 L 94.40199,113.23495 69.877389,88.710347 A 6.9964757,7.070776 45 0 0 67.971045,85.1054 6.9964757,7.070776 45 0 0 63.00804,83.071415 Z" />
  <g
     inkscape:groupmode="layer"
     id="layer3"
     inkscape:label="Capa 2" />
  <g
     inkscape:label="Capa 1"
     inkscape:groupmode="layer"
     id="layer1">
    <path
       style="fill:#2ec27e;stroke:#000000;stroke-width:0.264583px;stroke-linecap:butt;stroke-linejoin:miter;stroke-opacity:1"
       d="m 57.388304,120.11065 h 75.712446 l -0.31893,17.55246 h 17.04495 l 0.19466,12.40872 H 134.0419 l -0.19466,24.7323 H 58.212135 l 0.19466,-24.32125 h -20.37329 l -0.19466,-14.41269 h 19.758024 z"
       id="path6328"
       sodipodi:nodetypes="ccccccccccccc" />
    <g
       id="path6386"
       style="opacity:0.96">
      <path
         style="color:#000000;fill:#ffffff;stroke-width:0.264583;-inkscape-stroke:none"
         d="M 85.859994,141.88742 A 10.729783,10.667213 0 0 1 75.130211,152.55463 10.729783,10.667213 0 0 1 64.400428,141.88742 10.729783,10.667213 0 0 1 75.130211,131.22021 10.729783,10.667213 0 0 1 85.859994,141.88742 Z"
         id="path6681" />
      <path
         style="color:#000000;fill:#000000;-inkscape-stroke:none"
         d="m 75.130859,131.08789 c -5.996968,0 -10.863281,4.83558 -10.863281,10.79883 0,5.96325 4.866313,10.80078 10.863281,10.80078 5.996969,0 10.861329,-4.83753 10.861328,-10.80078 0,-5.96325 -4.864359,-10.79883 -10.861328,-10.79883 z m 0,0.26367 c 5.854811,0 10.597657,4.71574 10.597657,10.53516 0,5.81942 -4.742846,10.53516 -10.597657,10.53515 -5.854811,0 -10.597656,-4.71573 -10.597656,-10.53515 0,-5.81942 4.742845,-10.53516 10.597656,-10.53516 z"
         id="path6683" />
    </g>
    <circle
       style="opacity:0.96;fill:#ffffff;stroke:#000000;stroke-width:0.264583"
       id="circle6677"
       cx="112.32511"
       cy="142.11076"
       r="10.667213" />
    <ellipse
       style="opacity:0.96;fill:#000000;stroke:#000000;stroke-width:0.3696"
       id="path6386-7"
       cx="75.130211"
       cy="141.8877"
       rx="5.5305071"
       ry="5.0277839" />
    <ellipse
       style="opacity:0.96;fill:#000000;stroke:#000000;stroke-width:0.356202"
       id="path6386-7-5"
       cx="112.32511"
       cy="142.11076"
       rx="5.4042454"
       ry="4.7789974" />
    <rect
       style="opacity:0.96;fill:#000000;stroke:#000000;stroke-width:0.264583"
       id="rect6971"
       width="57.159752"
       height="11.506686"
       x="69.390327"
       y="159.78659" />
    <path
       style="fill:#e01b24;stroke:#000000;stroke-width:0.264583px;stroke-linecap:butt;stroke-linejoin:miter;stroke-opacity:1"
       d="m 74.395886,158.46667 0.09944,11.999 10.775526,-0.0893 -0.03674,-4.43375 -0.0974,6e-4 -0.04803,-5.79519 9.423963,-0.0781 0.08281,9.99285 8.251293,-0.0684 -0.0854,-10.30117 10.44942,-0.0866 0.0974,11.7558 8.34696,-0.0692 -0.0831,-10.0216 -47.149754,0.39073 z"
       id="path6973" />
  </g>
</svg>
